<svg width="100" height="100" fill="none" xmlns="http://www.w3.org/2000/svg"><mask id="a" maskUnits="userSpaceOnUse" x="0" y="0" width="100" height="100"><circle cx="50" cy="50" r="50" fill="#111"/></mask><g mask="url(#a)"><circle cx="50" cy="50" r="50" fill="#111"/><path d="M22 95.5c8-30 30.5-72 56.5 0-9.667-26.667-34.5-64-56.5 0z" fill="#fff" stroke="#fff"/><path d="M93.755 78.5c-30-8-72-30.5 0-56.5-26.667 9.667-64 34.5 0 56.5z" fill="#fff" stroke="#fff"/><path d="M5 78.5C35 70.5 77 48 5 22c26.667 9.667 64 34.5 0 56.5z" fill="#fff" stroke="#fff"/><path d="M22 8c8 30 30.5 72 56.5 0C68.833 34.667 44 72 22 8z" fill="#fff" stroke="#fff"/><path fill="#fff" d="M42 45h14v13H42z"/></g></svg>